<svg xmlns="http://www.w3.org/2000/svg" xmlns:xlink="http://www.w3.org/1999/xlink" viewBox="0 0 118 20">
<g>
	<g>
		<path fill="#FFFFFF" d="M112.9,6.7h1.1v0.2h-0.4V8h-0.2V6.9h-0.4V6.7z"/>
		<path fill="#FFFFFF" d="M114.1,6.7h0.3l0.4,1h0l0.4-1h0.3V8h-0.2V7h0l-0.4,1h-0.2l-0.4-1h0v1h-0.2V6.7z"/>
	</g>
	<path fill="#FFFFFF" d="M6.3,10.5L4,15.8c-0.2,0.5-0.3,0.9-0.3,1.3l0,0c0,0.6,0.2,1,0.5,1.3l0,0c0.3,0.3,0.8,0.5,1.5,0.5l0,0
		c1.8,0,4.1-1.6,4.9-3.4l0,0l4.9-11.3c0.2-0.5,0.3-0.9,0.3-1.3l0,0c0-0.6-0.2-1-0.5-1.3l0,0c-0.3-0.3-0.8-0.5-1.5-0.5l0,0
		c0,0,0,0,0,0l0,0c-1.8,0-4.1,1.6-4.9,3.4l0,0L6.3,10.5L1.9,9.1l0.4-1C4.3,3.6,9.5,0,14,0c1.7,0,3,0.5,4,1.4C19,2.3,19.5,3.5,19.5,5
		c0,1-0.2,2.1-0.8,3.3l-1.6,3.5c-0.7,1.5-1.7,3-3,4.2c0,0.2-0.1,0.3-0.1,0.5c0,0.4,0.1,0.7,0.3,0.9c0.2,0.2,0.5,0.3,1,0.3h2.1
		c0.7,0,1.5-0.3,2.2-0.9l2.3-5.3h-1.6c-0.4,0-0.7-0.4-0.5-0.8l0-0.1c0.2-0.4,0.6-0.8,1-0.8h1.8l0.5-1c0.3-0.7,1.1-1.3,1.8-1.3l0.2,0
		c0.7,0,1,0.6,0.7,1.2l-0.5,1h1.6c0.4,0,0.7,0.3,0.5,0.8l-0.1,0.1c-0.2,0.4-0.6,0.8-1,0.8h-1.8l-2.5,5.8c0,0.1,0.1,0.1,0.2,0.2
		c0.2,0.2,0.5,0.3,0.9,0.3h1.2c0.9,0,2.1-0.6,2.8-1.4l0-0.1l0.1-0.1c0.1-0.3,0.2-0.7,0.3-1l0.6-1.3c1.1-2.5,4-4.5,6.5-4.5
		c0.8,0,1.4,0.2,1.9,0.6c0.3-0.7,1.1-1.2,1.8-1.2l0.2,0c0.7,0,1,0.6,0.7,1.2l-2.5,5.7c-0.1,0.3-0.2,0.7-0.2,0.9
		c0,0.4,0.1,0.7,0.3,0.9c0.2,0.2,0.4,0.3,0.8,0.3c0.5,0,1.2-0.3,1.8-0.8c0-0.1,0-0.1,0.1-0.2l3-6.8c0.3-0.7,1.1-1.3,1.8-1.3l0.2,0
		c0.5,0,0.8,0.3,0.8,0.8l0,0c0.5-0.2,0.9-0.3,1.4-0.3c0.8,0,1.4,0.3,1.9,0.8c0.1,0.2,0.3,0.4,0.4,0.6l0,0c1-0.9,2.1-1.4,3.2-1.4
		c0.8,0,1.4,0.3,1.9,0.8c0.4,0.5,0.7,1.2,0.7,2c0,0.6-0.1,1.3-0.4,1.9l-0.1,0.4l0,0l-1.5,3.4l0,0h1c0.7,0,1.8-0.5,2.4-1.4h0
		c0.1-0.1,0.2-0.2,0.3-0.2c0.1-0.3,0.2-0.7,0.3-1l0.6-1.3c1.1-2.5,4-4.5,6.5-4.5c0.8,0,1.4,0.2,1.9,0.6c0.3-0.7,1.1-1.2,1.8-1.2
		l0.2,0c0.7,0,1,0.6,0.7,1.2l-2.5,5.7c0,0,0,0.1,0,0.1c-0.1,0.3-0.1,0.6-0.1,0.8c0,0.4,0.1,0.7,0.3,0.9c0.2,0.2,0.4,0.3,0.8,0.3
		c0.7,0,1.8-0.5,2.4-1.4c0,0,0.1-0.1,0.1-0.1l1.9-4.3c0,0,0,0,0,0l0.9-2l0.6-1.3c0,0,0,0,0,0l1.5-3.5H52.2c-0.4,0-0.7-0.3-0.7-0.6
		c0-0.1,0-0.2,0.1-0.3l0-0.1c0.2-0.5,0.7-0.8,1.2-0.9h63.6c0.4,0,0.7,0.3,0.7,0.6c0,0.1,0,0.2-0.1,0.3l-0.1,0.1
		c-0.2,0.5-0.7,0.8-1.1,0.8H77.6L76,8.6c0,0,0,0,0,0l-3.4,7.8c0,0.1-0.1,0.2-0.1,0.3c0,0.4,0.1,0.6,0.3,0.8c0.2,0.2,0.4,0.3,0.8,0.3
		c0.7,0,1.8-0.5,2.4-1.4c0.1-0.1,0.2-0.2,0.3-0.2c0.1-0.3,0.2-0.7,0.3-1l0.6-1.3c1.1-2.5,4-4.5,6.5-4.5c1.8,0,2.9,1.1,3,2.6h1.3
		c0.8,0,1.8-0.4,2.5-1.1l0.4-0.9c0.3-0.7,1.1-1.3,1.8-1.3l0.2,0c0.6,0,0.9,0.4,0.8,1c0.7-0.2,1.3-0.4,2-0.4c0.9,0,1.7,0.3,2.2,0.8
		c0.5,0.5,0.8,1.2,0.8,2c0,0.6-0.1,1.2-0.4,1.8l-0.1,0.1l-1.6,3.7h2.2c0.7,0,1.8-0.5,2.4-1.4v0c0,0,0.1-0.1,0.1-0.1
		c-0.5-0.9-0.7-1.9-0.6-2.9c0.3-3.3,3.4-6,7-6c3.6,0,6.3,2.7,6,6l-0.1,0.1c-1.3,0.9-4.6,1.6-11.4,1.4c0,0,3.4,3.3,10.6,1.2l0,0
		c-1.2,2-3.6,3.3-6.1,3.3c-1.6,0-3.1-0.6-4.1-1.5c-1,1.1-2.3,1.9-3.8,1.9h-3c-0.4,0-0.9-0.1-1.3-0.5C94.1,18.9,94,18.5,94,18
		c0-0.3,0.1-0.6,0.2-0.9l0.4-0.9c0,0,0-0.1,0.1-0.1l0,0l1.7-3.9l0.1-0.1c0.1-0.3,0.2-0.5,0.2-0.7c0-0.6-0.4-1-1.1-1
		c-1,0-2.4,0.9-2.8,2l-2,4.6v0l0,0l-0.7,1.6c-0.3,0.7-1.1,1.2-1.8,1.2l-0.2,0c-0.7,0-1-0.6-0.7-1.2l2.3-5.2c-0.5,0.1-1,0.2-1.4,0.2
		h-1.5c0,0.1-0.1,0.3-0.1,0.4l-1,2.3c-1.1,2.5-3.6,3.5-6,3.5h0c-1.2,0-2.1-0.5-2.6-1.2c-0.9,0.7-1.9,1.2-3.1,1.2c0,0,0,0,0,0
		c-0.9,0-1.7-0.3-2.2-0.9c-0.2-0.2-0.3-0.4-0.4-0.6c-0.9,0.9-2.1,1.5-3.4,1.6h0c-0.9,0-1.7-0.3-2.2-0.9c-0.3-0.3-0.5-0.7-0.6-1.1
		c-1.3,1.2-3.1,2-4.6,2c-1.2,0-2.1-0.5-2.6-1.2c-0.9,0.7-1.9,1.2-3.1,1.2h-1.9c0,0,0,0,0,0c-0.4,0-0.9-0.1-1.3-0.5
		c-0.4-0.3-0.5-0.8-0.5-1.3c0-0.3,0.1-0.5,0.2-0.8l2.5-5.9l0-0.1c0-0.6-0.3-0.9-0.9-0.9c-0.8,0-1.9,0.9-2.3,2l-2.7,6.2
		c-0.3,0.7-1.1,1.2-1.8,1.2l-0.2,0c-0.7,0-1-0.6-0.7-1.2l3.1-7.2l0,0c0-0.6-0.3-0.9-0.9-0.9c-0.8,0-1.9,0.9-2.3,2v0l-0.1,0.1
		l-1.9,4.4c-0.1,0.3-0.4,0.6-0.7,0.8c-1,1.2-2.4,2.1-4,2.1h0c-0.9,0-1.7-0.3-2.2-0.9c-0.3-0.3-0.5-0.6-0.6-1l-0.4,0.3
		c-1.3,1-2.8,1.7-4.3,1.7c-1.2,0-2.1-0.5-2.6-1.2c-1,0.7-2.1,1.2-3.3,1.2h-1.2c-0.8,0-1.6-0.2-2.2-0.7c-0.2-0.1-0.3-0.3-0.5-0.4
		c-0.9,0.7-2.1,1.1-3.2,1.1h-2.1c0,0,0,0,0,0c-0.9,0-1.8-0.3-2.4-0.9c-0.4-0.3-0.6-0.8-0.8-1.3C10.2,19.1,7.7,20,5.4,20
		c-1.7,0-3-0.5-4-1.4C0.5,17.7,0,16.5,0,15c0-1,0.2-2.1,0.8-3.3l1.1-2.6L6.3,10.5z M61.2,12.3l-2,4.6c-0.1,0.3-0.2,0.5-0.2,0.7l0,0
		c0,0.6,0.4,1,1.1,1l0,0c1,0,2.4-0.9,2.8-2l0,0l2-4.6c0.1-0.3,0.2-0.5,0.2-0.7l0,0c0-0.6-0.4-1-1.1-1l0,0c0,0,0,0,0,0l0,0
		C63,10.4,61.7,11.3,61.2,12.3L61.2,12.3z M80.6,12.3l-2,4.6c-0.1,0.3-0.2,0.5-0.2,0.7l0,0c0,0.6,0.4,1,1.1,1l0,0c1,0,2.4-0.9,2.8-2
		l0,0l2-4.6c0.1-0.3,0.2-0.5,0.2-0.7l0,0c0-0.6-0.4-1-1.1-1l0,0c0,0,0,0,0,0l0,0C82.3,10.4,81,11.3,80.6,12.3L80.6,12.3z M31.8,12.3
		l-2,4.6c-0.1,0.3-0.2,0.5-0.2,0.7l0,0c0,0.6,0.4,1,1.1,1l0,0c1,0,2.4-0.9,2.8-2l0,0l2-4.6c0.1-0.3,0.2-0.5,0.2-0.7l0,0
		c0-0.6-0.4-1-1.1-1l0,0c0,0,0,0,0,0l0,0C33.6,10.4,32.3,11.3,31.8,12.3L31.8,12.3z M104.9,11.1c-0.4,0-0.7,0.3-0.7,0.7
		c0,0.4,0.3,0.7,0.7,0.7c0.4,0,0.7-0.3,0.7-0.7C105.7,11.4,105.3,11.1,104.9,11.1z M111.1,10.6c-0.4,0-0.7,0.3-0.7,0.7
		s0.3,0.7,0.7,0.7c0.4,0,0.7-0.3,0.7-0.7S111.5,10.6,111.1,10.6z"/>
</g>
</svg>
